<?xml version="1.0" encoding="UTF-8" standalone="no"?>
<!-- Created with Inkscape (http://www.inkscape.org/) -->

<svg
   width="32mm"
   height="32mm"
   viewBox="0 0 32 32"
   version="1.1"
   id="svg1"
   xml:space="preserve"
   inkscape:export-filename="bitmap.ico"
   inkscape:export-xdpi="96"
   inkscape:export-ydpi="96"
   xmlns:inkscape="http://www.inkscape.org/namespaces/inkscape"
   xmlns:sodipodi="http://sodipodi.sourceforge.net/DTD/sodipodi-0.dtd"
   xmlns="http://www.w3.org/2000/svg"
   xmlns:svg="http://www.w3.org/2000/svg"><sodipodi:namedview
     id="namedview1"
     pagecolor="#ffffff"
     bordercolor="#000000"
     borderopacity="0.25"
     inkscape:showpageshadow="2"
     inkscape:pageopacity="0.0"
     inkscape:pagecheckerboard="0"
     inkscape:deskcolor="#d1d1d1"
     inkscape:document-units="mm"><inkscape:page
       x="0"
       y="0"
       width="32"
       height="32"
       id="page2"
       margin="0"
       bleed="0" /></sodipodi:namedview><defs
     id="defs1" /><g
     inkscape:label="Camada 1"
     inkscape:groupmode="layer"
     id="layer1"><g
       id="g14"
       style="fill:#000000;fill-opacity:1"
       transform="matrix(0.12499433,0,0,0.12499433,2.8829781,-2.5703608)"><path
         style="fill:#000000;fill-opacity:1;stroke-width:1.94783;stroke-linejoin:bevel"
         d="m -75.478465,566.33143 v -43.82614 l 15.408737,2.4e-4 c 11.188093,1.7e-4 15.748815,0.34031 16.650293,1.24179 0.682855,0.68285 1.790919,3.53156 2.462362,6.33045 0.671445,2.79889 1.566583,5.0889 1.989197,5.0889 0.422613,0 1.076037,1.64348 1.452051,3.65218 0.376013,2.0087 1.520443,5.49075 2.543177,7.73789 1.022733,2.24714 1.859515,4.76715 1.859515,5.60002 0,0.83287 0.368522,1.51431 0.818936,1.51431 0.450416,0 1.35837,2.41044 2.017677,5.35653 0.659308,2.9461 1.535575,5.35654 1.947262,5.35654 0.411686,0 1.337508,2.45517 2.057382,5.45594 1.334717,5.56373 3.09813,7.3943 5.148181,5.34425 1.184804,-1.18481 4.010205,-8.68704 5.558606,-14.75965 0.486981,-1.90987 1.556074,-4.75857 2.37576,-6.33045 0.819687,-1.57187 1.495741,-3.51535 1.502341,-4.31883 0.0066,-0.80348 0.612026,-2.61082 1.345391,-4.01631 0.7333656,-1.40549 1.909174,-4.80202 2.612908,-7.54784 0.7037339,-2.74583 1.6349249,-4.99241 2.0693137,-4.99241 0.4343878,0 0.7897969,-0.65439 0.7897969,-1.4542 0,-0.7998 0.7607791,-3.21024 1.6906202,-5.35653 l 1.6906203,-3.90235 H 13.864566 29.21747 v 43.82621 43.82621 H 16.556567 3.8956627 v -19.28354 c 0,-13.76313 0.3365609,-19.62009 1.1756555,-20.45918 0.9182632,-0.91826 0.8268817,-1.52443 -0.417393,-2.7687 -2.3351819,-2.33519 -4.1443394,-0.0964 -5.6787114,7.02737 -0.6846764,3.17879 -1.56193,6.21788 -1.9494539,6.75353 -0.387524,0.53566 -1.2613796,3.49393 -1.9419002,6.57393 -0.6805217,3.08001 -1.5673109,5.60002 -1.9706434,5.60002 -0.4033326,0 -1.0405374,1.86261 -1.4160101,4.13914 -0.3754728,2.27653 -1.0207815,4.5774 -1.4340178,5.11306 -0.4132364,0.53565 -1.0559004,2.39827 -1.4281414,4.13914 l -0.676801,3.16523 h -11.122647 c -10.061421,0 -11.122648,-0.16726 -11.122648,-1.75305 0,-0.96418 -0.368909,-2.1694 -0.819798,-2.67827 -0.45089,-0.50887 -1.380193,-3.55479 -2.065117,-6.76872 -0.684925,-3.21392 -1.558282,-6.06262 -1.940792,-6.33045 -0.626138,-0.43841 -1.995216,-5.03411 -5.149861,-17.287 -0.586118,-2.27653 -1.430095,-4.13914 -1.875502,-4.13914 -0.445409,0 -0.809834,-0.90866 -0.809834,-2.01924 0,-1.39863 -0.523834,-1.91855 -1.704352,-1.69161 -1.551103,0.29818 -1.727954,2.23117 -1.966825,21.49756 l -0.262473,21.16992 -12.398431,-3.1e-4 -12.398431,-3.1e-4 z"
         id="path1"
         transform="scale(0.26458333)" /><path
         style="fill:#000000;fill-opacity:1;stroke-width:1.94783;stroke-linejoin:bevel"
         d="m 45.774037,566.33197 v -43.82621 h 12.648602 12.648602 l 0.255781,34.81749 0.255781,34.81749 12.904382,0.27174 12.904383,0.27175 v 8.73697 8.73698 H 71.582803 45.774037 Z"
         id="path2"
         transform="scale(0.26458333)" /><path
         style="fill:#000000;fill-opacity:1;stroke-width:1.94783;stroke-linejoin:bevel"
         d="m 128.32618,576.80156 -0.25627,-33.35661 -11.93046,-0.27345 -11.93047,-0.27346 V 532.7019 522.50576 h 36.03488 36.03488 v 10.22612 10.22611 h -11.66843 c -11.29102,0 -11.68594,0.0709 -12.20945,2.19131 -0.29756,1.20522 -0.41548,16.32549 -0.26204,33.60059 l 0.27898,31.40927 -11.91768,-4.9e-4 -11.91768,-4.9e-4 z"
         id="path3"
         transform="scale(0.26458333)" /><path
         style="fill:#000000;fill-opacity:1;stroke-width:1.94783;stroke-linejoin:bevel"
         d="m 208.17448,610.48455 c -2.0087,-0.24418 -3.65219,-0.80825 -3.65219,-1.2535 0,-0.44525 -1.13317,-1.09395 -2.51815,-1.44156 -2.60636,-0.65416 -3.06965,-0.94892 -7.33133,-4.66452 -2.55229,-2.22525 -6.70708,-9.74621 -6.70708,-12.14108 0,-0.88426 1.50014,-1.27794 4.86958,-1.27794 4.21795,0 4.86957,0.26027 4.86957,1.94502 0,2.22937 6.40867,9.74196 8.31045,9.74196 0.69652,0 1.449,0.54783 1.67219,1.2174 0.28599,0.85797 3.08948,1.21739 9.49568,1.21739 6.4062,0 9.20968,-0.35942 9.49568,-1.21739 0.22318,-0.66957 0.95027,-1.2174 1.61574,-1.2174 2.90293,0 8.36689,-8.92918 8.36689,-13.67312 0,-5.15642 -5.16155,-11.92546 -10.02403,-13.14586 -1.45028,-0.364 -2.63687,-0.97873 -2.63687,-1.36607 0,-0.68292 -1.17042,-1.0361 -14.57443,-4.39788 -3.46288,-0.8685 -6.53072,-1.91581 -6.81741,-2.32734 -0.2867,-0.41153 -2.05518,-1.36871 -3.92997,-2.12707 -4.50135,-1.82082 -7.60454,-5.28979 -8.36681,-9.35301 -0.34058,-1.81547 -1.00782,-3.54102 -1.48275,-3.83454 -1.19405,-0.73796 -1.09252,-9.18396 0.1104,-9.18396 0.53566,0 0.97392,-0.90534 0.97392,-2.01186 0,-3.97587 3.56498,-8.16827 11.12576,-13.08384 2.59955,-1.69007 4.64397,-1.94783 15.44939,-1.94783 8.09555,0 12.69639,0.38007 13.14786,1.08613 0.38197,0.59737 1.62953,1.37766 2.77235,1.73398 3.0121,0.93912 8.00515,6.00978 8.71918,8.8547 0.33778,1.34583 1.0049,2.44697 1.48249,2.44697 0.47758,0 0.86833,0.87652 0.86833,1.94783 0,1.68812 -0.64928,1.94783 -4.86958,1.94783 -3.43269,0 -4.86958,-0.38698 -4.86958,-1.31147 0,-1.85077 -6.54655,-8.37292 -9.5507,-9.51509 -3.2388,-1.23139 -14.5692,-1.26918 -17.75168,-0.0592 -1.35351,0.5146 -3.87204,2.58764 -5.59672,4.60675 -2.79786,3.27551 -3.13578,4.32005 -3.13578,9.69316 0,6.6235 2.12305,10.29186 6.77199,11.70116 1.31415,0.39838 2.98894,1.3239 3.72175,2.05671 0.73281,0.73281 2.15174,1.33238 3.15317,1.33238 1.00144,0 2.05296,0.37566 2.33672,0.83479 0.28376,0.45913 3.26789,1.40126 6.6314,2.09361 3.36352,0.69236 6.55375,1.57438 7.0894,1.96004 0.53566,0.38567 2.53916,1.20475 4.45223,1.82019 5.55355,1.7866 11.40483,8.25248 12.18677,13.46685 0.7921,5.2821 -0.027,14.33016 -1.45428,16.06441 -0.56847,0.69072 -2.1748,2.68022 -3.56962,4.42109 -1.39483,1.74088 -3.10759,3.16523 -3.80615,3.16523 -0.69855,0 -1.52237,0.65739 -1.83069,1.46087 -0.30832,0.80348 -1.41435,1.46087 -2.45783,1.46087 -1.04348,0 -2.04332,0.42829 -2.22187,0.95175 -0.36454,1.06873 -14.91268,2.00571 -20.53339,1.32246 z"
         id="path4"
         transform="scale(0.26458333)" /><path
         style="fill:#000000;fill-opacity:1;stroke-width:1.94783;stroke-linejoin:bevel"
         d="m 294.12254,610.31763 c -4.24387,-0.83268 -16.55657,-6.79789 -16.55657,-8.02126 0,-0.49689 -0.60806,-0.90344 -1.35125,-0.90344 -0.74318,0 -2.38667,-1.35809 -3.65218,-3.01798 -1.26552,-1.6599 -3.01352,-3.74164 -3.88445,-4.6261 -0.87093,-0.88447 -1.91609,-2.70377 -2.32257,-4.0429 -0.40649,-1.33914 -1.14421,-2.69583 -1.63938,-3.01486 -0.49517,-0.31904 -1.4129,-3.27731 -2.0394,-6.57394 -0.62649,-3.29662 -1.47707,-5.99385 -1.89017,-5.99385 -1.04009,0 -0.9503,-12.42283 0.0945,-13.06853 0.46505,-0.28742 1.13776,-2.61416 1.49492,-5.17053 0.35715,-2.55638 1.40101,-6.22313 2.31968,-8.14834 2.51278,-5.2659 10.08092,-14.23762 13.11382,-15.5459 1.47305,-0.63542 2.67827,-1.45236 2.67827,-1.81542 0,-0.36306 1.64348,-1.24818 3.65218,-1.96693 2.0087,-0.71875 3.96479,-1.79288 4.34685,-2.38695 0.45347,-0.70509 5.3569,-1.08015 14.12178,-1.08015 12.24555,0 13.85562,0.20875 18.29669,2.37214 4.94812,2.4104 9.32804,5.21486 12.2661,7.85398 2.75037,2.47052 9.647,12.89047 9.647,14.57541 0,0.87537 0.54783,2.13898 1.21739,2.80802 1.67024,1.66892 1.68697,26.18539 0.0201,29.45254 -0.65851,1.29072 -1.66342,3.44242 -2.23313,4.78156 -2.89963,6.81577 -10.47791,15.42503 -15.3567,17.44589 -1.71928,0.71215 -3.12597,1.64509 -3.12597,2.0732 0,0.4281 -1.42435,1.08739 -3.16523,1.46507 -1.74087,0.37768 -3.41424,1.0764 -3.7186,1.55272 -0.70969,1.11065 -17.85334,1.87562 -22.33364,0.99655 z m 20.39403,-7.85661 c 0.31056,-0.50251 1.8022,-1.22426 3.31474,-1.60388 2.96411,-0.74394 14.27394,-10.964 14.27394,-12.89856 0,-0.64591 0.40683,-1.17438 0.90407,-1.17438 0.49724,0 1.44311,-2.52001 2.10195,-5.60002 0.65883,-3.08 1.56678,-6.01636 2.01767,-6.52523 1.11835,-1.26216 1.04016,-12.81823 -0.10091,-14.91413 -0.50638,-0.93012 -1.18099,-3.32053 -1.49913,-5.31201 -0.31813,-1.99148 -1.16078,-4.20323 -1.87255,-4.915 -0.71177,-0.71177 -1.58325,-2.20508 -1.93662,-3.31847 -0.93897,-2.95842 -6.56622,-8.4261 -11.95758,-11.6185 -4.43064,-2.62354 -5.34326,-2.78442 -15.90046,-2.80308 -9.91625,-0.0175 -11.70238,0.24435 -15.58265,2.28471 -5.30831,2.79127 -14.17827,11.91741 -15.08181,15.51743 -0.3604,1.43593 -1.16835,2.92788 -1.79545,3.31545 -1.53205,0.94686 -1.59989,27.81713 -0.0727,28.81132 0.58709,0.3822 1.34212,1.81931 1.67783,3.19358 0.57162,2.33996 1.40614,3.55479 6.62362,9.64213 2.9381,3.42795 10.65483,7.61553 16.92684,9.18557 3.04042,0.76109 17.32881,-0.24688 17.95924,-1.26693 z"
         id="path5"
         transform="scale(0.26458333)" /><path
         style="fill:#000000;fill-opacity:1;stroke-width:1.94783;stroke-linejoin:bevel"
         d="m 364.73142,567.87042 v -42.28776 l 4.62671,-0.32105 4.6267,-0.32106 -6e-4,39.68707 -6.1e-4,39.68706 h 15.0957 15.09569 v 2.92175 2.92175 h -19.72179 -19.7218 z"
         id="path6"
         transform="scale(0.26458333)" /><path
         style="fill:#000000;fill-opacity:1;stroke-width:1.94783;stroke-linejoin:bevel"
         d="m 443.13164,610.51978 c -1.33914,-0.26105 -3.81581,-1.1066 -5.50373,-1.87899 -1.68791,-0.7724 -3.32638,-1.40436 -3.64105,-1.40436 -0.64692,0 -4.00241,-2.62835 -6.34076,-4.96669 -3.52292,-3.52292 -4.80667,-5.7739 -6.78467,-11.89647 -1.93214,-5.98064 -2.07769,-8.48062 -2.07769,-35.68845 v -29.25731 h 4.83272 4.83272 l 0.28034,32.91054 0.28034,32.91053 3.2893,4.1516 c 4.66846,5.89229 10.57047,8.45789 19.11076,8.30745 4.76647,-0.084 7.89767,-0.7022 10.40824,-2.05505 5.34541,-2.88041 9.67158,-7.66312 10.61833,-11.73885 0.46203,-1.98907 0.85025,-17.42174 0.86269,-34.29483 l 0.0226,-30.67835 4.97696,0.34468 4.97696,0.34467 -0.35457,31.40658 c -0.23857,21.13248 -0.70988,31.85208 -1.44072,32.76845 -0.59739,0.74904 -1.60391,2.97018 -2.23672,4.93586 -1.35291,4.20256 -7.87163,10.52863 -13.85795,13.44842 -4.24707,2.07148 -16.8257,3.38878 -22.25413,2.33057 z"
         id="path7"
         transform="scale(0.26458333)" /><path
         style="fill:#000000;fill-opacity:1;stroke-width:1.94783;stroke-linejoin:bevel"
         d="m 534.92319,610.4754 c -2.27653,-0.23607 -4.13914,-0.79351 -4.13914,-1.23875 0,-0.44524 -1.48988,-1.08903 -3.31085,-1.43065 -1.82096,-0.34161 -3.8468,-1.26691 -4.50187,-2.05622 -0.65506,-0.7893 -1.70562,-1.4351 -2.33456,-1.4351 -1.76789,0 -6.85029,-4.11213 -9.84437,-7.965 -3.00766,-3.87035 -5.15882,-7.40553 -5.82061,-9.56548 -0.4103,-1.33914 -1.11724,-2.67487 -1.57098,-2.9683 -0.45373,-0.29344 -1.35041,-3.91324 -1.9926,-8.04402 -0.89588,-5.76253 -0.90474,-9.47539 -0.038,-15.95299 0.62127,-4.64337 1.52196,-8.69315 2.00152,-8.99951 0.47956,-0.30636 1.1729,-1.94476 1.54075,-3.64088 0.36785,-1.69613 1.29944,-3.32586 2.07019,-3.62162 0.77074,-0.29577 1.40136,-1.07034 1.40136,-1.72128 0,-1.04099 7.26591,-8.3854 10.93343,-11.05155 2.7509,-1.99981 5.63988,-3.40871 6.98963,-3.40871 0.76611,0 1.57544,-0.54783 1.79851,-1.21739 0.53944,-1.61924 29.67183,-1.75311 30.71351,-0.14113 0.38252,0.59194 2.33897,1.61202 4.34767,2.26683 2.0087,0.65482 3.65219,1.54169 3.65219,1.97081 0,0.42913 1.20522,1.29792 2.67827,1.93064 2.62152,1.12603 9.78387,9.39925 11.16864,12.90088 0.62407,1.57807 0.1246,1.76768 -4.65666,1.76768 -4.21573,0 -5.48741,-0.36279 -5.9744,-1.70436 -0.86412,-2.38051 -7.89666,-9.05474 -11.98109,-11.37065 -2.83742,-1.60883 -5.2858,-1.94013 -14.60874,-1.97672 -10.18486,-0.04 -11.59346,0.17672 -15.54069,2.39082 -12.37642,6.94225 -18.47722,18.24985 -18.52241,34.33053 -0.0132,4.68697 0.3583,8.52176 0.82549,8.52176 0.4672,0 1.12729,1.73757 1.46689,3.86127 1.25178,7.82822 10.54715,18.33121 17.79472,20.10655 1.52679,0.37399 3.08253,1.15037 3.4572,1.72529 0.99972,1.53399 19.50675,1.39538 20.02186,-0.14996 0.21913,-0.65739 1.29113,-1.19526 2.38222,-1.19526 4.28954,0 15.38436,-9.84247 15.38436,-13.64782 0,-0.5285 2.41044,-0.96091 5.35654,-0.96091 2.94609,0 5.35653,0.19851 5.35653,0.44113 0,2.18085 -4.51877,9.05924 -7.63958,11.62883 -0.72002,0.59284 -2.25394,1.9602 -3.4087,3.03856 -1.15477,1.07837 -4.29089,2.96848 -6.96916,4.20025 -2.67827,1.23177 -5.58762,2.62351 -6.46524,3.09277 -1.94361,1.03923 -16.31852,1.88107 -22.02179,1.28966 z"
         id="path8"
         transform="scale(0.26458333)" /><path
         style="fill:#000000;fill-opacity:1;stroke-width:1.94783;stroke-linejoin:bevel"
         d="M 621.35821,570.71459 V 531.271 h -11.68699 -11.68699 v -2.92174 -2.92175 h 27.7566 27.75659 v 2.92175 2.92174 h -11.68699 -11.68698 v 39.44359 39.44359 h -4.38262 -4.38262 z"
         id="path9"
         transform="scale(0.26458333)" /><path
         style="fill:#000000;fill-opacity:1;stroke-width:1.94783;stroke-linejoin:bevel"
         d="M 671.02791,567.89514 V 525.6321 l 3.89566,-0.37151 3.89566,-0.37151 v 42.63455 42.63455 h -3.89566 -3.89566 z"
         id="path10"
         transform="scale(0.26458333)" /><path
         style="fill:#000000;fill-opacity:1;stroke-width:1.94783;stroke-linejoin:bevel"
         d="m 730.68024,610.4818 c -2.27653,-0.23959 -4.13914,-0.84868 -4.13914,-1.35354 0,-0.50485 -0.68892,-0.91792 -1.53093,-0.91792 -4.47218,0 -19.77228,-12.54032 -21.34472,-17.49465 -0.34627,-1.09101 -0.98136,-1.98366 -1.4113,-1.98366 -0.42994,0 -1.31012,-2.08174 -1.95595,-4.6261 -0.64582,-2.54435 -1.57931,-5.38711 -2.0744,-6.31724 -1.13153,-2.12579 -1.19002,-19.50943 -0.0698,-20.75762 0.45669,-0.50887 1.39017,-3.00696 2.07441,-5.55131 0.68423,-2.54436 1.62537,-4.6261 2.09141,-4.6261 0.46604,0 0.84734,-0.49097 0.84734,-1.09105 0,-3.70285 11.39349,-15.28745 17.00302,-17.28821 0.55793,-0.199 2.54834,-1.07553 4.42313,-1.94783 2.62983,-1.22362 6.30165,-1.56983 16.06961,-1.51517 l 12.6609,0.0709 6.63645,3.57704 c 5.9911,3.22919 15.27665,11.37305 15.27665,13.39832 0,0.44198 0.56681,1.15407 1.25958,1.58243 0.69277,0.42835 1.87961,2.75101 2.63742,5.16145 0.75782,2.41044 1.82316,4.68832 2.36743,5.06196 1.32041,0.90648 1.32041,25.97839 0,26.88487 -0.54427,0.37364 -1.58917,2.54196 -2.32201,4.81848 -0.73284,2.27653 -1.70055,4.13915 -2.15047,4.13915 -0.44992,0 -0.81803,0.43241 -0.81803,0.96091 0,3.1702 -8.49155,11.6505 -13.8783,13.85992 -0.93739,0.38448 -1.70435,1.10266 -1.70435,1.59596 0,0.4933 -1.50202,1.17869 -3.33783,1.52309 -1.8358,0.3444 -3.47928,1.03553 -3.65218,1.53585 -0.3573,1.03392 -16.69575,1.95918 -22.9579,1.30012 z m 20.15343,-7.99608 c 0.29825,-0.46644 1.96248,-1.15618 3.69828,-1.53275 4.13416,-0.89687 12.68903,-9.34172 15.83536,-15.63171 2.2365,-4.4711 2.43478,-5.93827 2.43478,-18.01537 0,-11.8707 -0.22166,-13.58129 -2.28192,-17.60974 -3.28155,-6.41646 -9.6367,-12.69407 -15.6949,-15.5034 -4.56163,-2.11533 -6.60184,-2.4336 -15.54995,-2.42575 -8.55251,0.008 -10.87759,0.34304 -13.70814,1.97818 -10.04323,5.80177 -11.15268,6.98158 -16.44792,17.4911 -2.19929,4.36495 -2.45283,6.0302 -2.44667,16.06961 0.006,10.19457 0.24961,11.72056 2.71085,16.9984 2.50954,5.38141 12.17269,16.11473 14.508,16.11473 0.49193,0 2.27543,0.63196 3.96335,1.40436 1.68791,0.77239 4.16459,1.61668 5.50372,1.87619 3.58138,0.69403 16.84429,-0.22723 17.47516,-1.21385 z"
         id="path11"
         transform="scale(0.26458333)" /><path
         style="fill:#000000;fill-opacity:1;stroke-width:1.94783;stroke-linejoin:bevel"
         d="M 801.53261,567.30589 V 524.4536 l 4.6261,0.0463 4.6261,0.0463 4.8465,7.50158 c 2.66558,4.12586 5.20229,7.93983 5.63713,8.47548 0.43484,0.53566 2.75255,4.04175 5.15047,7.79133 5.2697,8.24011 6.14405,9.55087 8.95727,13.428 1.20522,1.66102 2.19131,3.59228 2.19131,4.29169 0,0.69942 0.44911,1.27167 0.99802,1.27167 0.54891,0 1.41459,1.09565 1.92372,2.43478 0.50914,1.33914 1.29302,2.43479 1.74195,2.43479 0.44894,0 1.41811,1.53392 2.15372,3.40871 0.73561,1.87479 1.70478,3.4087 2.15371,3.4087 0.44894,0 1.23281,1.09566 1.74195,2.43479 0.50914,1.33914 1.37481,2.43479 1.92373,2.43479 0.54891,0 0.99802,0.59034 0.99802,1.31186 0,0.72152 0.87652,2.32249 1.94783,3.55772 1.07131,1.23523 1.94783,2.8362 1.94783,3.55772 0,0.72152 0.87652,1.31186 1.94783,1.31186 1.91125,0 1.94783,-0.64928 1.94783,-34.57401 v -34.574 h 4.86958 4.86958 v 42.85229 42.85229 h -5.35654 c -3.97205,0 -5.35653,-0.35662 -5.35653,-1.37972 0,-0.75884 -0.3287,-1.5258 -0.73044,-1.70435 -0.40174,-0.17855 -2.04399,-2.29682 -3.64945,-4.70726 -1.60545,-2.41044 -3.16831,-4.60175 -3.47301,-4.86958 -0.3047,-0.26783 -1.98158,-3.00696 -3.7264,-6.08697 -1.74481,-3.08001 -3.53098,-5.60002 -3.96925,-5.60002 -0.43827,0 -1.07185,-1.09565 -1.40795,-2.43479 -0.3361,-1.33913 -0.98784,-2.43479 -1.4483,-2.43479 -0.46046,0 -1.38181,-1.31478 -2.04743,-2.92174 -0.66563,-1.60696 -1.59532,-2.92175 -2.06599,-2.92175 -0.47067,0 -0.85576,-0.50646 -0.85576,-1.12547 0,-0.619 -1.09565,-2.56194 -2.43479,-4.31763 -1.33913,-1.7557 -2.43479,-3.65968 -2.43479,-4.23107 0,-0.5714 -0.44911,-1.0389 -0.99802,-1.0389 -0.54891,0 -1.41459,-1.09566 -1.92373,-2.43479 -0.50913,-1.33914 -1.3273,-2.43479 -1.81814,-2.43479 -0.49084,0 -1.15974,-1.06501 -1.48644,-2.36669 -0.3267,-1.30167 -1.14117,-2.94516 -1.80993,-3.65218 -0.66877,-0.70702 -2.53072,-3.25768 -4.13768,-5.66812 -1.60697,-2.41044 -3.25045,-4.52871 -3.65219,-4.70726 -0.40174,-0.17855 -0.73043,-0.94551 -0.73043,-1.70435 0,-1.68713 -1.16102,-1.77697 -2.72697,-0.21102 -0.86421,0.86421 -1.1687,9.99887 -1.1687,35.06097 v 33.89227 h -3.89566 -3.89566 z"
         id="path12"
         transform="scale(0.26458333)" /><path
         style="fill:#000000;fill-opacity:1;stroke-width:1.94783;stroke-linejoin:bevel"
         d="m 49.827125,502.29701 c 0.492365,-2.54435 1.248857,-5.28349 1.681094,-6.08697 0.432238,-0.80348 1.373904,-3.76175 2.092591,-6.57393 0.718688,-2.81218 1.662114,-5.11306 2.096502,-5.11306 0.434389,0 0.789798,-0.64871 0.789798,-1.44159 0,-1.55532 4.966189,-14.31207 5.884243,-15.11497 0.306237,-0.26783 1.164425,-2.02088 1.907082,-3.89567 0.742658,-1.87478 1.5943,-3.62783 1.892538,-3.89566 0.298239,-0.26783 1.764667,-2.8974 3.258732,-5.84349 3.835398,-7.5629 6.343261,-11.92508 7.233789,-12.58247 0.42125,-0.31097 1.421888,-1.88018 2.22364,-3.48714 0.801753,-1.60696 2.006275,-3.27222 2.676716,-3.70058 0.670441,-0.42836 1.218983,-1.19532 1.218983,-1.70435 0,-0.50904 0.68504,-1.69248 1.52231,-2.62988 0.837272,-0.93739 2.834583,-3.4574 4.438471,-5.60001 8.325914,-11.12249 33.437976,-36.52184 36.108756,-36.52184 0.46414,0 1.08075,-0.61727 1.37026,-1.37171 0.2895,-0.75443 1.80966,-1.90326 3.37814,-2.55294 1.56847,-0.64968 2.85176,-1.57718 2.85176,-2.06111 0,-0.48392 1.09566,-1.29643 2.43479,-1.80557 1.33914,-0.50913 2.43479,-1.37481 2.43479,-1.92372 0,-0.54891 0.58947,-0.99802 1.30993,-0.99802 0.72046,0 2.10317,-0.87653 3.07269,-1.94783 0.96952,-1.07131 2.28517,-1.94784 2.92368,-1.94784 0.6385,0 2.18531,-0.88845 3.43735,-1.97435 1.25205,-1.08589 3.29128,-2.22906 4.53164,-2.54037 1.24035,-0.31131 2.25519,-0.92278 2.25519,-1.35882 0,-0.43604 1.53392,-1.29905 3.40871,-1.91778 1.87479,-0.61874 3.4087,-1.48174 3.4087,-1.91778 0,-0.43604 1.09566,-1.0678 2.43479,-1.4039 1.33914,-0.3361 2.43479,-0.99729 2.43479,-1.46932 0,-0.47202 2.19131,-1.3839 4.86958,-2.02641 2.67827,-0.64251 4.86958,-1.4747 4.86958,-1.84932 0,-0.37462 1.64348,-1.2364 3.65218,-1.91507 2.0087,-0.67867 4.52871,-1.60309 5.60002,-2.05427 2.72532,-1.14776 10.94368,-3.83501 15.58265,-5.09522 2.14261,-0.58206 4.33392,-1.3748 4.86958,-1.76163 0.53565,-0.38684 4.69914,-1.28382 9.2522,-1.99329 4.55305,-0.70948 8.49741,-1.58436 8.76524,-1.94418 0.99916,-1.34237 22.52576,-2.87064 40.4175,-2.86941 17.7814,0.001 39.40123,1.57152 40.4175,2.93562 0.26783,0.35949 3.99305,1.20664 8.27828,1.88255 4.28523,0.67591 8.22959,1.57275 8.76524,1.99297 0.53566,0.42021 2.83423,1.07085 5.10796,1.44585 2.27372,0.37499 4.36293,1.05218 4.6427,1.50486 0.27977,0.45267 2.91164,1.3608 5.8486,2.01806 2.93696,0.65727 5.33993,1.51984 5.33993,1.91682 0,0.39699 2.19131,1.24749 4.86958,1.89 2.67827,0.6425 4.86958,1.54288 4.86958,2.00084 0,0.45795 1.55542,1.12444 3.45649,1.48108 1.90107,0.35665 3.98656,1.14346 4.63441,1.74849 0.64786,0.60502 3.78857,2.41482 6.97936,4.02179 3.19079,1.60696 6.36704,3.44086 7.05834,4.07534 0.69129,0.63447 2.2404,1.4605 3.44245,1.83561 1.20205,0.37512 2.40468,0.95289 2.6725,1.28394 1.0996,1.35918 8.46763,5.95297 9.54803,5.95297 0.64078,0 1.16504,0.44911 1.16504,0.99802 0,0.54891 1.1497,1.43513 2.55488,1.96938 2.23279,0.84891 3.42987,0.38545 9.49568,-3.67629 3.81744,-2.55621 7.15993,-4.91728 7.42776,-5.24682 0.26782,-0.32954 1.47046,-0.90608 2.6725,-1.2812 1.20205,-0.37511 2.73596,-1.20114 3.40871,-1.83561 0.67274,-0.63448 3.96129,-2.46838 7.30789,-4.07534 3.34661,-1.60697 6.08574,-3.19349 6.08697,-3.52562 0.001,-0.33212 1.97442,-1.15604 4.38486,-1.83092 2.41044,-0.67488 4.38262,-1.60836 4.38262,-2.0744 0,-0.46604 0.66217,-0.84735 1.47149,-0.84735 0.80932,0 3.32932,-0.82847 5.60002,-1.84105 2.27068,-1.01257 6.22156,-2.38748 8.77971,-3.05534 2.55816,-0.66786 4.86925,-1.56712 5.13576,-1.99834 0.26651,-0.43123 2.44653,-1.07827 4.84449,-1.43786 2.39796,-0.3596 4.35992,-0.95042 4.35992,-1.31293 0,-0.36251 3.83479,-1.23955 8.52176,-1.94897 4.68697,-0.70942 8.96003,-1.63663 9.49568,-2.06048 4.63931,-3.6709 74.97503,-3.6841 79.86109,-0.015 0.53565,0.40224 4.48001,1.25281 8.76524,1.89015 4.28523,0.63733 8.66785,1.53619 9.73915,1.99747 2.21403,0.95329 10.02433,3.55198 15.0957,5.02272 1.87478,0.5437 4.72349,1.58412 6.33045,2.31203 1.60696,0.72791 4.12697,1.62391 5.60001,1.99111 1.47305,0.3672 2.67827,0.96271 2.67827,1.32336 0,0.36064 1.97218,1.23803 4.38262,1.94975 2.41044,0.71171 4.38262,1.6491 4.38262,2.08306 0,0.43397 1.31479,1.07782 2.92175,1.43076 1.60696,0.35295 2.92175,1.02757 2.92175,1.49917 0,0.47159 1.75305,1.38266 3.89566,2.0246 2.14261,0.64195 3.89566,1.53018 3.89566,1.97386 0,0.44368 1.42435,1.46115 3.16523,2.26105 4.29463,1.9733 6.90722,3.68812 7.83972,5.14571 0.42835,0.66956 1.21864,1.21739 1.75619,1.21739 1.18155,0 13.95475,9.3257 21.21823,15.49139 6.24223,5.2988 23.48166,22.28562 23.48166,23.13758 0,0.32823 1.64348,2.47444 3.65218,4.76934 2.0087,2.2949 4.52871,5.35423 5.60002,6.79851 1.0713,1.44428 2.71479,3.45044 3.65218,4.45813 0.93739,1.00769 1.70435,2.06069 1.70435,2.34 0,0.70201 5.07939,8.45539 6.57076,10.02986 0.6697,0.70702 1.48495,2.35051 1.81165,3.65218 0.3267,1.30168 0.93158,2.36669 1.34418,2.36669 0.4126,0 1.32629,1.42435 2.03044,3.16522 0.70414,1.74088 1.52869,3.38436 1.83235,3.65219 1.00017,0.88215 5.88894,11.20222 5.88894,12.4314 0,0.66188 0.34258,1.20342 0.76129,1.20342 0.41871,0 1.34361,1.97218 2.05533,4.38262 0.71172,2.41044 1.68392,4.38262 2.16046,4.38262 0.47652,0 0.86641,0.63033 0.86641,1.40073 0,1.73746 4.8873,17.23157 5.85581,18.56454 0.38919,0.53565 1.00376,2.6174 1.3657,4.6261 l 0.65808,3.65218 h -27.1492 -27.1492 l -1.07728,-2.19131 c -0.5925,-1.20522 -1.37301,-3.28696 -1.73447,-4.6261 -0.86573,-3.20734 -8.30918,-18.85088 -9.27274,-19.48807 -0.41312,-0.27319 -1.0614,-1.73294 -1.44062,-3.24388 -0.37922,-1.51094 -1.25094,-2.96261 -1.93715,-3.22594 -0.68621,-0.26333 -1.49441,-1.46189 -1.79599,-2.66349 -0.30158,-1.2016 -1.32722,-3.10119 -2.27921,-4.22131 -0.95198,-1.12013 -2.38826,-3.01496 -3.19174,-4.21075 -0.80348,-1.19578 -2.44697,-3.38167 -3.65219,-4.85753 -1.20522,-1.47585 -2.19131,-2.95004 -2.19131,-3.27597 0,-1.83992 -25.37616,-26.88282 -27.24056,-26.88282 -0.4392,0 -1.83064,-1.08808 -3.09208,-2.41796 -1.26144,-1.32988 -2.81958,-2.42554 -3.46253,-2.43479 -0.64295,-0.009 -1.51948,-0.56465 -1.94783,-1.23422 -0.92533,-1.44639 -3.5347,-3.16625 -7.75049,-5.10842 -1.6918,-0.7794 -3.22572,-1.75668 -3.40871,-2.17174 -0.41974,-0.95205 -10.8546,-6.11118 -12.36048,-6.11118 -0.61605,0 -1.12009,-0.42067 -1.12009,-0.93482 0,-0.51415 -1.75305,-1.46005 -3.89566,-2.10199 -2.14262,-0.64195 -3.89566,-1.48729 -3.89566,-1.87854 0,-0.39125 -1.64349,-1.01902 -3.65219,-1.39503 -2.0087,-0.37601 -5.49075,-1.52044 -7.7379,-2.54318 -2.24713,-1.02273 -4.65757,-1.86589 -5.35653,-1.87369 -0.69895,-0.008 -3.02387,-0.61697 -5.16649,-1.35372 -2.14261,-0.73675 -6.74436,-1.65572 -10.22611,-2.04214 -3.48175,-0.38643 -6.94564,-1.2016 -7.69753,-1.8115 -1.88804,-1.5315 -47.93465,-1.55099 -49.8573,-0.0211 -0.75189,0.5983 -3.77751,1.38431 -6.72361,1.7467 -6.52795,0.80298 -19.07591,4.07173 -22.40006,5.83523 -1.33913,0.71043 -3.74957,1.59609 -5.35653,1.96813 -2.71068,0.62758 -6.55911,2.22244 -15.0957,6.25593 -1.87479,0.88583 -3.62783,1.85462 -3.89566,2.15285 -0.26783,0.29824 -1.91131,1.11837 -3.65218,1.82251 -1.74088,0.70414 -3.16523,1.61784 -3.16523,2.03044 0,0.4126 -1.06501,1.01748 -2.36668,1.34418 -1.30168,0.3267 -2.94516,1.14117 -3.65219,1.80993 -0.70702,0.66876 -3.25768,2.52945 -5.66812,4.13485 -2.41044,1.60541 -4.73309,3.46802 -5.16145,4.13914 -0.42836,0.67113 -1.30792,1.22023 -1.95457,1.22023 -0.64666,0 -2.58353,1.53391 -4.30414,3.4087 -1.72062,1.87479 -3.5063,3.40871 -3.96817,3.40871 -1.20985,0 -14.15038,13.27203 -15.19536,15.58462 -0.4836,1.07023 -1.20648,1.94586 -1.60642,1.94586 -1.0078,0 -13.58393,17.00979 -13.58393,18.37287 0,0.608 -0.40989,1.10544 -0.91087,1.10544 -0.50098,0 -1.46555,1.53392 -2.14348,3.40871 -0.67793,1.87479 -1.51116,3.4087 -1.85162,3.4087 -0.58706,0 -3.06557,4.75495 -7.64816,14.67274 -1.13003,2.44565 -2.0546,5.18479 -2.0546,6.08698 0,0.90219 -0.4184,1.64034 -0.92979,1.64034 -0.51137,0 -1.21755,1.53392 -1.56926,3.40871 l -0.63947,3.4087 h -27.22093 -27.22093 l 0.65008,-4.6261 c 0.35754,-2.54435 1.22513,-5.8269 1.92797,-7.29456 0.70284,-1.46766 1.58342,-4.09723 1.95685,-5.84349 0.37342,-1.74627 1.01297,-3.6133 1.42121,-4.14895 0.40824,-0.53565 1.06646,-2.06957 1.46269,-3.4087 0.39624,-1.33914 1.76466,-4.74866 3.04095,-7.57672 1.27628,-2.82804 2.32051,-5.56718 2.32051,-6.08697 0,-0.51978 0.36889,-0.94505 0.81975,-0.94505 0.45087,0 1.34499,-1.75305 1.98693,-3.89566 0.64194,-2.14262 1.55301,-3.89567 2.02461,-3.89567 0.47159,0 1.14621,-1.31478 1.49916,-2.92174 0.35295,-1.60696 0.93818,-2.92175 1.30051,-2.92175 0.36233,0 1.2785,-1.42435 2.03591,-3.16523 0.75741,-1.74087 1.65239,-3.38435 1.98885,-3.65218 0.33646,-0.26783 1.87459,-2.67141 3.41807,-5.3413 1.54348,-2.6699 3.16231,-5.29947 3.59742,-5.8435 3.9688,-4.96243 8.56466,-11.30665 10.11708,-13.96584 1.87084,-3.20462 1.87084,-3.25166 -4.4e-4,-4.6261 -1.03978,-0.76371 -2.46413,-1.38856 -3.16523,-1.38856 -0.7011,0 -1.27473,-0.38509 -1.27473,-0.85576 0,-0.47067 -1.42435,-1.43188 -3.16523,-2.13602 -1.74087,-0.70414 -3.38435,-1.5287 -3.65218,-1.83236 -0.45413,-0.51488 -9.7408,-5.06693 -14.12178,-6.92206 -1.0713,-0.45365 -3.92001,-1.37153 -6.33045,-2.03974 -2.41044,-0.66821 -4.60175,-1.47922 -4.86958,-1.80224 -0.85393,-1.02992 -15.85384,-4.76997 -21.9131,-5.46377 -3.21392,-0.368 -6.15621,-1.15057 -6.53841,-1.73904 -1.0502,-1.61697 -47.98291,-1.47747 -49.60783,0.14745 -0.66957,0.66957 -2.55409,1.23279 -4.18784,1.25161 -4.72605,0.0544 -23.90963,4.76012 -23.90963,5.86497 0,0.3858 -1.64348,1.0091 -3.65218,1.38511 -2.0087,0.37601 -5.62436,1.54695 -8.03481,2.60208 -10.05286,4.40049 -13.63481,6.19286 -13.63481,6.82273 0,0.36664 -1.34441,0.96189 -2.98756,1.32279 -1.64315,0.36089 -3.21369,1.24546 -3.49006,1.9657 -0.27638,0.72024 -1.8103,1.59676 -3.40871,1.94783 -1.59841,0.35107 -3.1426,1.25437 -3.43154,2.00734 -0.28894,0.75297 -0.9134,1.36904 -1.38769,1.36904 -1.27252,0 -13.538,8.98381 -13.538,9.91587 0,0.43846 -0.54783,0.798 -1.21739,0.79896 -1.28803,0.002 -19.63792,18.42358 -24.59137,24.68763 -1.60697,2.03213 -3.90731,4.86837 -5.11187,6.30274 -1.20457,1.43439 -2.19066,3.10891 -2.19131,3.72116 -6.6e-4,0.61226 -0.65859,1.36546 -1.46207,1.67379 -0.80348,0.30832 -1.46087,1.16468 -1.46087,1.90301 0,0.73833 -0.87652,2.35306 -1.94783,3.58829 -1.07131,1.23523 -1.94783,2.83621 -1.94783,3.55772 0,0.72152 -0.38509,1.31186 -0.85576,1.31186 -0.47067,0 -1.43825,1.42435 -2.15018,3.16522 -0.71194,1.74088 -1.84355,3.72715 -2.51469,4.41393 -0.67115,0.68679 -1.50539,2.76854 -1.85387,4.6261 -0.34848,1.85757 -0.98259,3.3774 -1.40913,3.3774 -0.42654,0 -1.33714,2.19131 -2.02356,4.86958 -0.68642,2.67826 -1.55593,4.86957 -1.93225,4.86957 -0.37632,0 -0.95921,1.09566 -1.29531,2.43479 l -0.6111,2.43479 H 76.064934 48.931917 Z"
         id="path13"
         transform="scale(0.26458333)" /><path
         style="fill:#000000;fill-opacity:1;stroke-width:1.94783;stroke-linejoin:bevel"
         d="m 248.26734,783.11846 c -0.22319,-0.21818 -5.66494,-0.93261 -12.09279,-1.58762 -6.42784,-0.65499 -11.90612,-1.48751 -12.17394,-1.85003 -0.26783,-0.36251 -4.21219,-1.2396 -8.76524,-1.94907 -4.55306,-0.70947 -8.71655,-1.62183 -9.2522,-2.02746 -0.53566,-0.40564 -3.49393,-1.29431 -6.57393,-1.97483 -3.08001,-0.68053 -5.60002,-1.55706 -5.60002,-1.94786 0,-0.39081 -1.64348,-1.01768 -3.65218,-1.39305 -2.0087,-0.37537 -4.09045,-1.0026 -4.6261,-1.39383 -0.53566,-0.39123 -2.83653,-1.29869 -5.11306,-2.01656 -2.27653,-0.71789 -4.13914,-1.62964 -4.13914,-2.02613 0,-0.39649 -2.19131,-1.24658 -4.86958,-1.88908 -2.67827,-0.6425 -4.86958,-1.51988 -4.86958,-1.9497 0,-0.42982 -1.20522,-1.28019 -2.67827,-1.88968 -3.57462,-1.47906 -8.40457,-4.09974 -9.00872,-4.88803 -0.26782,-0.34946 -1.91131,-1.21149 -3.65218,-1.91563 -1.74087,-0.70414 -3.16523,-1.63137 -3.16523,-2.06049 0,-0.42913 -1.49516,-1.27368 -3.32258,-1.87679 -1.82742,-0.6031 -3.56671,-1.73274 -3.8651,-2.51032 -0.29838,-0.77757 -1.21366,-1.41376 -2.03395,-1.41376 -0.82029,0 -1.49144,-0.44911 -1.49144,-0.99802 0,-0.54891 -1.09565,-1.41459 -2.43479,-1.92373 -1.33913,-0.50913 -2.43479,-1.32164 -2.43479,-1.80557 0,-0.48393 -1.31478,-1.42447 -2.92174,-2.09009 -1.60697,-0.66562 -2.92175,-1.60907 -2.92175,-2.09656 0,-0.48747 -0.6814,-1.1478 -1.51422,-1.46738 -2.74034,-1.05156 -22.34293,-19.9616 -29.651083,-28.60352 -2.410441,-2.85036 -5.259145,-6.11264 -6.330452,-7.24951 -1.071307,-1.13688 -2.486264,-3.25143 -3.144346,-4.69901 -0.658084,-1.44759 -1.644173,-2.63197 -2.19131,-2.63197 -0.547139,0 -0.994796,-0.63562 -0.994796,-1.41248 0,-0.77687 -0.548542,-1.76296 -1.218983,-2.19131 -0.670441,-0.42836 -1.874963,-2.09362 -2.676716,-3.70058 -0.801752,-1.60696 -1.80239,-3.17618 -2.22364,-3.48715 -0.890528,-0.65739 -3.398391,-5.01957 -7.233789,-12.58246 -1.494065,-2.94609 -3.020531,-5.49441 -3.392148,-5.66292 -0.371617,-0.16851 -1.202085,-1.92156 -1.845485,-3.89566 -0.6434,-1.97411 -1.448271,-3.80841 -1.788604,-4.07624 -0.340332,-0.26783 -1.893336,-3.77392 -3.451119,-7.79132 -1.557784,-4.01741 -3.137392,-7.74263 -3.510242,-8.27829 -0.372849,-0.53565 -0.982468,-2.39827 -1.354709,-4.13914 l -0.676801,-3.16523 h 28.320938 c 23.221315,0 28.320935,0.23837 28.320935,1.32378 0,1.35062 5.59068,12.40093 6.72125,13.28496 0.34252,0.26783 1.18311,1.58261 1.86796,2.92175 3.07091,6.00467 4.24012,7.79132 5.09875,7.79132 0.50643,0 0.92131,0.54783 0.92197,1.2174 6.5e-4,0.66956 0.98674,2.39097 2.19131,3.82535 1.20456,1.43438 3.5049,4.28308 5.11187,6.33045 4.92378,6.27322 23.2377,24.66168 24.5617,24.66168 0.68588,0 1.24706,0.35374 1.24706,0.78608 0,0.98287 12.09563,9.927 13.42482,9.927 0.53653,0 1.21193,0.61606 1.50087,1.36903 0.28894,0.75297 1.86975,1.66432 3.5129,2.02522 1.64315,0.36089 2.98756,1.02631 2.98756,1.47869 0,0.45239 2.52,2.06105 5.60001,3.5748 3.08001,1.51376 5.81915,3.02191 6.08697,3.35146 0.26783,0.32954 1.58262,0.92959 2.92175,1.33344 1.33913,0.40384 4.18784,1.51883 6.33045,2.47773 2.14262,0.95891 5.53915,2.05112 7.54785,2.42714 2.0087,0.37601 3.65218,1.02437 3.65218,1.4408 0,0.41643 1.64349,1.06426 3.65219,1.43964 2.0087,0.37537 4.09044,1.02394 4.6261,1.44127 0.53565,0.41733 4.69914,1.30161 9.2522,1.96507 4.55305,0.66346 9.33122,1.70715 10.61815,2.3193 3.1059,1.47737 48.55994,1.55833 49.55674,0.0883 0.38216,-0.56361 4.85833,-1.59596 9.94703,-2.2941 5.08871,-0.69814 9.69047,-1.62214 10.22612,-2.05332 0.53565,-0.43119 2.6174,-1.0911 4.6261,-1.46647 2.0087,-0.37538 3.65218,-1.02321 3.65218,-1.43964 0,-0.41643 1.64349,-1.06479 3.65219,-1.4408 5.16297,-0.96647 26.86905,-10.96089 28.48703,-13.11667 0.26783,-0.35684 1.91131,-1.22493 3.65218,-1.92907 1.74088,-0.70414 3.16523,-1.66535 3.16523,-2.13601 0,-0.47067 0.54783,-0.85786 1.21739,-0.86042 0.66957,-0.003 2.88527,-1.53647 4.92378,-3.4087 2.03851,-1.87223 4.08303,-3.40405 4.54337,-3.40405 0.46034,0 2.0174,-0.98609 3.46014,-2.19131 4.64186,-3.87766 22.86412,-21.82874 22.86412,-22.52386 0,-0.36976 1.31478,-1.95754 2.92174,-3.52839 1.60696,-1.57085 2.92175,-3.22649 2.92175,-3.67919 0,-0.45271 0.76696,-1.67288 1.70435,-2.7115 2.7795,-3.07965 9.72216,-13.65442 10.43118,-15.88833 0.36115,-1.13788 1.06536,-2.06887 1.56492,-2.06887 0.49955,0 0.90829,-0.54154 0.90829,-1.20342 0,-0.66188 1.16731,-3.51058 2.59404,-6.33045 l 2.59404,-5.12704 h 28.0843 c 23.80334,0 28.0843,0.21393 28.0843,1.4034 0,0.77187 -0.39802,1.64938 -0.88448,1.95003 -0.48646,0.30066 -1.44583,2.73696 -2.13195,5.41402 -0.6861,2.67706 -1.55085,4.86737 -1.92164,4.86737 -0.3708,0 -1.1969,2.07593 -1.83579,4.61317 -0.63889,2.53724 -1.48304,4.83812 -1.87591,5.11306 -0.39286,0.27494 -2.84896,4.77294 -5.45799,9.99557 -2.60903,5.22262 -5.10386,9.49567 -5.54408,9.49567 -0.44021,0 -0.80039,0.52428 -0.80039,1.16505 0,1.28102 -4.91974,8.86694 -6.08697,9.38571 -0.40174,0.17855 -0.73632,0.83594 -0.7435,1.46087 -0.007,0.62493 -0.87681,2.23189 -1.93251,3.57103 -11.05035,14.01723 -11.82167,15.9449 -6.81967,17.04352 1.60696,0.35295 2.92175,0.97075 2.92175,1.3729 0,1.21515 19.6227,10.57788 26.78268,12.77902 2.14262,0.65869 4.33393,1.52816 4.86958,1.93215 0.53565,0.40399 2.50783,1.05488 4.38262,1.44641 1.87479,0.39154 3.84697,1.04705 4.38262,1.4567 0.53565,0.40966 4.91828,1.30374 9.73916,1.98685 4.82088,0.68312 9.38037,1.72169 10.13222,2.30795 1.89969,1.48131 47.97457,1.4716 49.85718,-0.0105 0.752,-0.59202 5.43593,-1.64377 10.40871,-2.33722 4.97277,-0.69344 9.2717,-1.6334 9.55315,-2.08881 0.28146,-0.4554 1.38645,-0.828 2.45552,-0.828 1.06909,0 3.78236,-0.83678 6.02949,-1.85951 2.24715,-1.02274 5.7292,-2.16717 7.7379,-2.54318 2.0087,-0.37602 3.65219,-1.00378 3.65219,-1.39503 0,-0.39126 1.75304,-1.2366 3.89566,-1.87854 2.14261,-0.64194 3.89566,-1.58784 3.89566,-2.10199 0,-0.51415 0.54154,-0.93482 1.20342,-0.93482 1.76726,0 11.82153,-5.14392 12.68068,-6.48763 0.40493,-0.63332 2.04841,-1.43968 3.65219,-1.79193 1.60376,-0.35225 2.91594,-1.05474 2.91594,-1.56109 0,-0.50635 1.09566,-1.3372 2.43479,-1.84634 1.33913,-0.50914 2.43479,-1.37481 2.43479,-1.92373 0,-0.54891 0.54783,-1.00559 1.21739,-1.01484 0.66957,-0.009 2.24949,-1.10491 3.51093,-2.43479 1.26144,-1.32988 2.65288,-2.41797 3.09208,-2.41797 1.95702,0 24.51222,-22.28838 27.7121,-27.3843 2.71405,-4.32219 4.95984,-7.26603 6.07901,-7.96853 0.68243,-0.42836 1.24078,-1.21382 1.24078,-1.74546 0,-0.53165 0.44444,-1.49596 0.98763,-2.14292 2.43642,-2.90182 5.85834,-8.74232 6.4101,-10.94069 0.33262,-1.32525 0.91177,-2.40954 1.28701,-2.40954 0.37524,0 1.75208,-2.406 3.05964,-5.34667 l 2.3774,-5.34666 28.42928,-0.01 28.42927,-0.01 -1.34374,2.59008 c -0.73907,1.42454 -1.62813,4.27325 -1.97569,6.33045 -0.34756,2.05721 -0.98329,3.74038 -1.41274,3.74038 -0.42945,0 -1.36313,1.97218 -2.07485,4.38262 -0.71172,2.41044 -1.63662,4.38262 -2.05533,4.38262 -0.41871,0 -0.76129,0.54154 -0.76129,1.20342 0,1.35582 -4.97623,11.67431 -5.99991,12.44115 -0.36469,0.2732 -0.97335,1.73294 -1.35256,3.24389 -0.37923,1.51094 -1.25095,2.96261 -1.93716,3.22594 -0.68621,0.26332 -1.507,1.51207 -1.82397,2.77498 -0.31698,1.26292 -1.12426,2.8747 -1.79396,3.58172 -1.49137,1.57447 -6.57076,9.32785 -6.57076,10.02986 0,0.27931 -0.76696,1.31761 -1.70435,2.30733 -0.93739,0.98973 -2.58088,3.0622 -3.65218,4.60549 -1.07131,1.54329 -3.59132,4.61732 -5.60002,6.83118 -2.0087,2.21385 -3.65218,4.28802 -3.65218,4.60925 0,0.87282 -17.3609,18.01334 -23.43867,23.14115 -7.55501,6.37414 -20.10167,15.50055 -21.30961,15.50055 -0.56417,0 -1.02576,0.41435 -1.02576,0.92076 0,0.92198 -2.59157,2.56044 -8.52176,5.38767 -1.74088,0.82997 -3.16523,1.90659 -3.16523,2.39249 0,0.4859 -1.2845,1.16559 -2.85445,1.51041 -1.56995,0.34482 -3.35328,1.228 -3.96296,1.96261 -0.60968,0.73462 -2.39301,1.61779 -3.96296,1.96262 -1.56994,0.34481 -2.85445,0.98201 -2.85445,1.41597 0,0.43397 -1.97218,1.37135 -4.38262,2.08307 -2.41044,0.71172 -4.38262,1.57966 -4.38262,1.92875 0,0.3491 -1.98347,1.19007 -4.40771,1.86881 -2.42424,0.67875 -4.61785,1.57409 -4.87468,1.98966 -0.25683,0.41557 -2.21772,1.05136 -4.35753,1.41289 -2.13981,0.36152 -3.89056,0.9873 -3.89056,1.39064 0,0.40332 -2.52001,1.29011 -5.60002,1.97064 -3.08,0.68052 -6.03827,1.5643 -6.57393,1.96396 -0.53565,0.39965 -4.48001,1.27411 -8.76524,1.94325 -4.28523,0.66914 -8.44872,1.56201 -9.2522,1.98415 -3.35797,1.76426 -33.30199,4.11267 -46.02551,3.60963 -14.90291,-0.5892 -32.90582,-2.46954 -34.32253,-3.58486 -0.53565,-0.4217 -4.80871,-1.32804 -9.49568,-2.01409 -4.68697,-0.68605 -8.52176,-1.55905 -8.52176,-1.93999 0,-0.38094 -1.80762,-0.98167 -4.01693,-1.33496 -2.2093,-0.35328 -5.91049,-1.50495 -8.22485,-2.55926 -2.31435,-1.05432 -4.80704,-1.91693 -5.5393,-1.91693 -0.73226,0 -3.14557,-0.87653 -5.36292,-1.94783 -2.21735,-1.07131 -4.71012,-1.94784 -5.53946,-1.94784 -0.82936,0 -1.50793,-0.36889 -1.50793,-0.81975 0,-0.45086 -1.86261,-1.37583 -4.13914,-2.05547 -2.27653,-0.67964 -4.35827,-1.53481 -4.6261,-1.90038 -0.26782,-0.36558 -3.11653,-1.95931 -6.33045,-3.54165 -3.21392,-1.58234 -6.42197,-3.42545 -7.12899,-4.09581 -0.70703,-0.67035 -2.35051,-1.48613 -3.65219,-1.81283 -1.30168,-0.3267 -2.36668,-0.95522 -2.36668,-1.39671 0,-0.44148 -0.80766,-1.05904 -1.7948,-1.37235 -0.98714,-0.31331 -4.13828,-2.31811 -7.00252,-4.45513 -5.26411,-3.92754 -7.92827,-4.31427 -10.19778,-1.48031 -0.53771,0.67144 -1.96206,1.53324 -3.16522,1.91512 -1.20317,0.38187 -2.18757,1.04987 -2.18757,1.48444 0,0.43457 -1.31479,1.33473 -2.92175,2.00035 -1.60696,0.66562 -2.92175,1.54781 -2.92175,1.96041 0,0.4126 -1.065,1.01748 -2.36668,1.34418 -1.30168,0.3267 -2.9489,1.14117 -3.6605,1.80993 -0.7116,0.66877 -3.90446,2.53072 -7.09525,4.13768 -3.19079,1.60696 -6.34294,3.41677 -7.00478,4.02179 -0.66185,0.60502 -2.75878,1.39184 -4.65985,1.74849 -1.90107,0.35663 -3.45649,1.03202 -3.45649,1.50084 0,0.46882 -1.42435,1.14938 -3.16523,1.51234 -1.74087,0.36296 -4.08724,1.24244 -5.21415,1.95437 -1.12691,0.71194 -3.64691,1.59421 -5.60001,1.96062 -1.9531,0.36641 -3.5511,0.99579 -3.5511,1.39864 0,0.40284 -2.73913,1.29619 -6.08697,1.98523 -3.34783,0.68903 -6.52523,1.58054 -7.06089,1.98114 -0.53565,0.4006 -4.48001,1.28138 -8.76524,1.9573 -4.28523,0.6759 -8.01045,1.51452 -8.27828,1.86359 -1.55129,2.02189 -54.7171,5.3374 -56.56827,3.52771 z"
         id="path14"
         transform="scale(0.26458333)" /></g></g></svg>
